<?xml version="1.0" standalone="no"?>
<!DOCTYPE svg PUBLIC "-//W3C//DTD SVG 20010904//EN"
 "http://www.w3.org/TR/2001/REC-SVG-20010904/DTD/svg10.dtd">
<svg version="1.0" xmlns="http://www.w3.org/2000/svg"
 width="256.000000pt" height="256.000000pt" viewBox="0 0 256.000000 256.000000"
 preserveAspectRatio="xMidYMid meet">
<metadata>
Created by potrace 1.14, written by Peter Selinger 2001-2017
</metadata>
<g transform="translate(0.000000,256.000000) scale(0.100000,-0.100000)"
fill="#000000" stroke="none">
<path d="M1120 2389 c-80 -27 -318 -107 -530 -177 l-385 -127 -2 -190 c-2
-154 0 -192 12 -205 13 -14 15 -100 17 -554 l3 -537 25 -14 c25 -15 81 -40
255 -117 92 -41 137 -61 308 -142 54 -25 100 -46 102 -46 3 0 37 -15 77 -34
40 -18 119 -55 174 -80 l102 -46 63 28 c73 33 126 57 258 119 51 23 95 43 97
43 2 0 47 21 101 46 54 25 139 64 188 86 98 44 174 78 278 128 l67 31 0 582
c1 496 3 585 15 601 12 15 15 52 15 160 l0 141 -133 43 c-72 23 -316 103 -540
177 -225 74 -412 135 -415 134 -4 0 -72 -23 -152 -50z"/>
</g>
</svg>
